<?xml version="1.0" standalone="no"?>
<!DOCTYPE svg PUBLIC "-//W3C//DTD SVG 20010904//EN"
 "http://www.w3.org/TR/2001/REC-SVG-20010904/DTD/svg10.dtd">
<svg version="1.0" xmlns="http://www.w3.org/2000/svg"
 width="300.000000pt" height="300.000000pt" viewBox="0 0 300.000000 300.000000"
 preserveAspectRatio="xMidYMid meet">
<metadata>
Created by potrace 1.11, written by Peter Selinger 2001-2013
</metadata>
<g transform="translate(0.000000,300.000000) scale(0.100000,-0.100000)"
fill="#000000" stroke="none">
<path d="M1250 2891 c-130 -59 -263 -117 -296 -129 -102 -35 -254 -52 -468
-52 l-196 0 0 -714 c0 -592 3 -728 15 -792 72 -379 311 -707 707 -973 156
-104 421 -231 483 -231 65 0 306 117 485 235 374 246 599 546 695 924 l25 100
0 724 0 725 -247 5 c-352 8 -339 4 -835 233 -64 30 -120 54 -125 54 -4 -1
-114 -50 -243 -109z m437 -27 c408 -187 435 -194 756 -194 l217 0 0 -662 c0
-707 -3 -758 -52 -923 -49 -166 -163 -362 -301 -518 -165 -186 -488 -404 -744
-502 l-72 -28 -99 42 c-127 54 -297 148 -411 229 -362 256 -572 564 -635 931
-14 80 -16 195 -16 762 l0 667 248 4 c306 6 313 7 656 163 138 63 254 114 258
114 4 1 92 -38 195 -85z"/>
<path d="M1247 2789 c-318 -147 -331 -150 -639 -156 l-248 -5 0 -612 c0 -348
5 -650 10 -701 45 -394 278 -737 680 -1001 103 -67 285 -162 383 -198 l61 -24
63 24 c35 13 113 49 174 79 417 210 714 518 829 863 65 195 65 201 65 917 l0
650 -245 6 c-305 8 -318 11 -642 158 -134 61 -246 111 -248 110 -3 0 -112 -50
-243 -110z m60 -70 c10 -28 36 -97 58 -152 33 -83 44 -103 65 -108 14 -4 18
-7 9 -8 -25 -1 -31 -28 -11 -43 10 -7 28 -28 41 -46 12 -18 36 -39 52 -47 59
-31 42 -115 -24 -115 -39 0 -47 6 -74 50 -29 47 -69 84 -82 75 -14 -8 -14 -95
-1 -131 6 -15 8 -29 6 -32 -4 -3 -297 -84 -756 -208 -52 -14 -115 -32 -139
-40 -24 -7 -47 -11 -52 -8 -5 3 -9 160 -9 350 l0 344 153 0 c305 0 402 19 622
119 61 27 113 50 117 51 4 0 15 -23 25 -51z m595 -36 c143 -63 207 -74 466
-80 l232 -6 0 -350 c0 -328 -1 -349 -17 -344 -10 2 -218 60 -463 127 -245 67
-448 124 -453 127 -4 2 -3 13 3 23 15 28 12 84 -6 131 -17 40 -82 99 -111 99
-7 0 -13 11 -13 25 0 18 5 25 19 25 27 0 37 16 80 131 21 57 45 121 54 142
l16 37 58 -26 c32 -15 93 -42 135 -61z m-494 -572 c67 -53 136 -53 197 1 l35
30 168 -45 c496 -135 647 -179 650 -187 2 -6 11 -10 20 -11 14 0 13 -2 -3 -9
-25 -11 -1931 -11 -1965 0 -23 7 -23 8 -3 9 12 1 23 5 25 11 2 5 44 20 93 34
300 81 626 170 665 181 66 19 78 18 118 -14z m362 -412 c0 -7 -21 -36 -46 -65
l-46 -54 -194 0 c-214 0 -211 -1 -178 61 29 57 75 69 282 69 130 0 182 -3 182
-11z m540 2 c0 -5 -20 -34 -46 -65 l-45 -56 -195 0 -194 0 0 24 c0 33 45 84
83 95 42 12 397 14 397 2z m-1416 -61 c26 -33 53 -60 59 -60 7 1 32 27 57 60
l45 59 83 1 82 0 0 -233 0 -233 -75 1 -75 0 0 128 c0 95 -3 127 -12 126 -7 0
-32 -25 -56 -55 -24 -30 -47 -54 -52 -54 -5 0 -28 25 -52 55 -23 30 -46 55
-50 55 -4 0 -9 -57 -10 -127 l-3 -127 -75 0 -75 0 -3 232 -2 232 83 0 84 0 47
-60z m852 -152 c19 -21 34 -47 34 -58 0 -19 -6 -20 -197 -20 -218 0 -233 4
-270 59 -43 63 -46 62 188 59 l211 -3 34 -37z m505 27 c30 -16 69 -68 69 -93
0 -10 -42 -13 -210 -10 l-210 3 -29 30 c-16 17 -33 42 -36 58 l-7 27 196 0
c158 0 203 -3 227 -15z m-471 -170 c0 -29 -30 -74 -58 -89 -20 -10 -79 -15
-225 -18 -108 -1 -197 -1 -197 1 0 2 21 30 48 62 l47 59 193 0 c167 0 192 -2
192 -15z m540 4 c0 -6 -7 -26 -16 -44 -27 -58 -56 -65 -272 -68 -105 -1 -192
0 -192 1 0 2 21 30 46 63 l47 59 193 0 c134 0 194 -3 194 -11z m204 -301 c-4
-13 -19 -47 -33 -77 -25 -51 -29 -55 -79 -68 -29 -7 -66 -20 -82 -28 -47 -24
-141 -19 -213 12 -46 19 -79 26 -127 26 -48 0 -81 -7 -127 -26 -84 -36 -160
-36 -239 0 -82 36 -166 37 -253 0 -87 -36 -160 -36 -244 0 -86 37 -171 37
-251 0 -77 -35 -152 -36 -238 -3 -35 14 -75 27 -89 30 -20 4 -32 19 -53 65
-14 32 -26 66 -26 75 0 15 86 16 1031 16 l1030 0 -7 -22z m-1901 -195 c87 -37
178 -37 267 1 55 24 75 28 130 24 41 -3 82 -14 110 -28 66 -35 164 -33 247 3
84 36 152 36 236 0 85 -37 177 -37 264 0 82 35 144 35 226 0 48 -20 78 -26
132 -26 54 0 84 6 132 26 34 15 67 27 73 27 5 0 -3 -21 -20 -47 -55 -89 -182
-114 -307 -60 -85 37 -161 37 -246 0 -86 -37 -160 -37 -249 0 -45 18 -84 27
-122 27 -38 0 -78 -9 -123 -27 -46 -19 -86 -28 -123 -28 -37 0 -77 9 -123 28
-91 37 -158 36 -257 -3 -90 -35 -131 -37 -205 -9 -42 15 -64 31 -86 61 -28 39
-35 58 -24 58 3 0 34 -12 68 -27z m498 -115 c77 -33 196 -32 259 2 65 35 153
34 243 -2 89 -37 157 -37 240 -1 86 38 169 37 257 -1 58 -26 73 -28 143 -23
86 6 85 7 28 -55 -33 -37 -81 -37 -169 0 -93 38 -172 37 -267 -2 -58 -24 -79
-28 -130 -24 -36 3 -79 15 -105 29 -64 34 -173 33 -250 -1 -75 -34 -163 -34
-245 0 -82 34 -181 34 -245 1 -31 -17 -63 -24 -103 -25 -57 -1 -60 0 -93 41
l-35 41 78 -5 c68 -5 86 -2 138 20 33 14 69 27 80 30 38 11 122 -1 176 -25z
m4 -115 c85 -35 161 -34 250 2 91 36 157 36 245 -1 87 -36 162 -36 250 1 85
36 154 36 238 1 34 -14 75 -26 92 -26 37 0 37 -6 3 -42 -32 -34 -37 -34 -98
-7 -69 31 -167 29 -241 -5 -77 -35 -162 -36 -245 0 -83 34 -165 34 -248 0 -82
-35 -160 -35 -242 0 -78 32 -168 34 -235 5 -59 -26 -58 -26 -100 7 -42 33 -43
42 -4 42 16 0 53 10 82 21 104 43 152 43 253 2z m-8 -110 c92 -38 184 -38 266
0 78 36 147 36 230 0 48 -21 78 -27 132 -27 54 0 84 6 132 27 73 32 142 35
205 10 57 -22 57 -21 24 -48 -25 -20 -33 -21 -64 -13 -48 13 -108 4 -181 -27
-81 -34 -150 -33 -238 2 -91 37 -164 37 -254 0 -86 -35 -154 -36 -238 -2 -76
31 -136 40 -182 27 -30 -8 -39 -6 -64 14 l-29 23 44 20 c64 29 135 27 217 -6z
m6 -110 c85 -36 169 -36 254 0 83 36 153 36 236 0 83 -35 181 -37 247 -3 50
25 189 43 176 22 -25 -41 -365 -232 -492 -277 -52 -18 -52 -18 -110 5 -142 56
-412 208 -474 266 -28 27 92 18 163 -13z"/>
<path d="M870 2345 c-41 -24 -81 -44 -88 -44 -7 -1 -45 15 -85 35 l-72 35 63
-60 c74 -71 99 -76 158 -32 46 34 122 111 109 110 -6 0 -44 -20 -85 -44z"/>
<path d="M2329 2343 l-85 -46 -72 36 c-40 19 -72 32 -72 28 0 -5 26 -32 57
-61 53 -47 61 -52 95 -47 26 3 55 20 93 53 46 39 86 85 73 84 -2 0 -41 -21
-89 -47z"/>
</g>
</svg>
